<?xml version="1.0" standalone="no"?>
<!DOCTYPE svg PUBLIC "-//W3C//DTD SVG 20010904//EN"
 "http://www.w3.org/TR/2001/REC-SVG-20010904/DTD/svg10.dtd">
<svg version="1.0" xmlns="http://www.w3.org/2000/svg"
 width="1280.000000pt" height="640.000000pt" viewBox="0 0 1280.000000 640.000000"
 preserveAspectRatio="xMidYMid meet">
<metadata>
Created by potrace 1.15, written by Peter Selinger 2001-2017
</metadata>
<g transform="translate(0.000000,640.000000) scale(0.100000,-0.100000)"
fill="#4caf50" stroke="none">
<path d="M0 5630 c0 -79 127 -553 226 -841 406 -1188 1055 -2041 2067 -2718
618 -413 1547 -841 2304 -1060 827 -240 1841 -330 2748 -245 723 67 1374 240
1885 500 390 197 631 456 867 929 71 140 181 408 243 585 18 52 36 99 40 103
14 15 373 -98 614 -193 764 -302 1339 -779 1661 -1378 31 -57 41 -68 46 -54 4
10 12 88 18 173 21 285 32 384 53 464 12 44 22 102 22 129 l1 50 -90 38 c-161
70 -482 228 -895 442 -603 312 -907 453 -1235 575 -77 28 -148 55 -158 59 -11
4 -40 62 -78 157 -332 831 -826 1391 -1542 1751 -217 109 -574 242 -852 317
-888 239 -1791 233 -2630 -19 -198 -60 -271 -89 -595 -237 -387 -176 -479
-211 -735 -277 -729 -189 -1498 -169 -2297 61 -370 106 -652 224 -1337 560
-189 93 -346 169 -348 169 -1 0 -3 -18 -3 -40z"/>
</g>
</svg>
