<?xml version="1.0" standalone="no"?>
<!DOCTYPE svg PUBLIC "-//W3C//DTD SVG 20010904//EN"
 "http://www.w3.org/TR/2001/REC-SVG-20010904/DTD/svg10.dtd">
<svg version="1.0" xmlns="http://www.w3.org/2000/svg"
 width="640.000000pt" height="1280.000000pt" viewBox="0 0 640.000000 1280.000000"
 preserveAspectRatio="xMidYMid meet">
<metadata>
Created by potrace 1.15, written by Peter Selinger 2001-2017
</metadata>
<g transform="translate(0.000000,1280.000000) scale(0.100000,-0.100000)"
fill="#4caf50" stroke="none">
<path d="M3587 12773 c-3 -5 -8 -30 -12 -58 -13 -95 -87 -461 -126 -629 -88
-374 -212 -793 -342 -1156 -214 -593 -369 -894 -857 -1665 -613 -968 -721
-1205 -760 -1660 -6 -71 -13 -159 -16 -195 l-6 -65 -29 33 c-16 18 -29 41 -29
52 0 36 -16 21 -40 -37 -12 -32 -100 -211 -195 -398 -223 -440 -293 -621 -311
-806 -6 -68 -7 -69 -33 -62 -33 8 -78 30 -86 43 -10 16 -25 12 -25 -7 0 -10
-39 -162 -85 -338 -96 -358 -149 -604 -166 -774 -12 -120 -7 -367 9 -433 6
-20 8 -39 6 -41 -3 -2 -25 0 -51 4 -25 5 -48 7 -51 4 -2 -2 15 -68 38 -147 59
-198 69 -243 70 -318 0 -98 -27 -138 -118 -176 -1 -1 9 -41 23 -90 61 -211 88
-390 65 -433 -9 -18 -18 -22 -41 -19 -26 4 -29 2 -23 -16 121 -436 375 -833
744 -1161 287 -255 498 -400 1005 -692 439 -253 548 -326 680 -457 186 -185
271 -373 391 -872 54 -225 66 -234 72 -49 3 105 1 118 -48 310 -79 303 -73
390 30 508 80 91 254 190 543 311 226 95 259 110 365 172 398 233 656 481
1057 1019 159 213 173 235 189 300 92 372 325 1158 411 1383 23 61 41 112 38
112 -2 0 -27 -12 -55 -26 l-51 -26 6 24 c2 12 18 84 35 158 39 170 54 284 41
318 -7 19 -13 22 -21 14 -25 -25 -27 -10 -6 41 34 85 78 224 108 347 152 607
124 1285 -86 2135 -95 381 -224 777 -507 1555 -107 294 -200 552 -207 573 -13
42 -19 41 -36 -6 l-12 -32 -11 28 c-31 79 -222 379 -293 460 -18 21 -41 39
-52 41 -14 2 -27 29 -55 122 -106 340 -245 604 -588 1112 -208 309 -277 431
-327 582 -44 135 -62 244 -81 510 -18 238 -25 303 -56 468 -21 110 -24 119
-32 105z"/>
</g>
</svg>
