<?xml version="1.0" standalone="no"?>
<!DOCTYPE svg PUBLIC "-//W3C//DTD SVG 20010904//EN"
 "http://www.w3.org/TR/2001/REC-SVG-20010904/DTD/svg10.dtd">
<svg version="1.0" xmlns="http://www.w3.org/2000/svg"
 width="1280.000000pt" height="694.000000pt" viewBox="0 0 1280.000000 694.000000"
 preserveAspectRatio="xMidYMid meet">
<metadata>
Created by potrace 1.15, written by Peter Selinger 2001-2017
</metadata>
<g transform="translate(0.000000,694.000000) scale(0.100000,-0.100000)"
fill="#4caf50" stroke="none">
<path d="M5540 6930 c-161 -13 -250 -27 -338 -55 -44 -14 -113 -30 -154 -35
-121 -16 -467 -11 -753 10 -632 47 -1076 13 -1470 -112 -115 -37 -332 -145
-624 -311 -113 -64 -234 -127 -270 -139 -92 -32 -256 -30 -491 5 -258 39 -358
47 -645 54 -325 7 -509 -9 -703 -63 -70 -20 -64 -6 -82 -182 -11 -114 -13
-232 -4 -255 5 -13 21 -10 102 20 53 19 151 47 217 63 530 125 1074 94 1426
-84 l102 -51 72 -175 c209 -512 472 -974 822 -1446 134 -179 197 -252 430
-501 280 -298 338 -376 588 -782 176 -284 235 -364 332 -444 92 -77 131 -121
283 -322 144 -191 311 -359 445 -447 101 -68 277 -164 710 -390 132 -69 319
-170 415 -225 399 -228 691 -362 1063 -487 238 -80 305 -93 757 -146 253 -30
304 -45 505 -150 192 -100 249 -118 470 -145 72 -9 207 -27 300 -40 234 -34
453 -52 765 -65 146 -5 342 -15 435 -21 288 -19 387 -7 729 90 311 89 336 92
721 101 306 7 362 11 560 40 131 19 271 33 346 35 129 3 164 12 173 42 10 35
28 841 22 963 -15 265 -61 496 -146 720 -26 69 -108 244 -182 390 -138 271
-153 309 -264 668 -122 396 -164 474 -650 1207 -464 702 -605 889 -811 1085
-191 181 -332 281 -687 485 -128 74 -292 170 -364 214 -281 173 -550 289 -917
397 -66 19 -201 62 -300 94 -193 63 -248 74 -448 90 -173 13 -301 43 -675 156
-63 19 -146 41 -185 49 -124 27 -161 38 -207 60 -43 21 -62 23 -365 29 -635
12 -952 14 -1055 6z"/>
</g>
</svg>
